<?xml version="1.0" encoding="UTF-8"?>
<svg id="rocket" xmlns="http://www.w3.org/2000/svg" width="214.43" height="352.56" viewBox="0 0 214.43 352.56">
  <g id="body">
    <g id="window" fill="none" opacity=".3">
      <circle cx="106.56" cy="117.87" r="26.54" fill="none" stroke="#4fb589" stroke-linecap="round"
        stroke-linejoin="round" stroke-width="4" />
      <line x1="58.02" y1="63.69" x2="152.81" y2="63.69" fill="none" stroke="#4fb589" stroke-linecap="round"
        stroke-linejoin="round" stroke-width="4" />
      <line x1="106.62" y1="279.44" x2="106.62" y2="210.76" fill="none" stroke="#4fb589" stroke-linecap="round"
        stroke-linejoin="round" stroke-width="4" />
      <path
        d="m122.23,270.01h32s31.26-90.91,20.53-150.15C163.39,57.04,112.23,1.01,104.23,2.01s-58.77,60.39-67.09,127.55c-6.89,55.66,23.09,140.45,23.09,140.45h32.83"
        fill="none" stroke="#4fb589" stroke-linecap="round" stroke-linejoin="round" stroke-width="4" />
      <line x1="121.37" y1="251.44" x2="159.96" y2="251.44" fill="none" stroke="#4fb589" stroke-linecap="round"
        stroke-linejoin="round" stroke-width="4" />
      <polyline points="39.81 189.08 2 217.91 9.83 293.48 54.31 251.42" fill="none" stroke="#4fb589"
        stroke-linecap="round" stroke-linejoin="round" stroke-width="4" />
      <polyline points="173.74 188.41 212.43 217.91 204.6 293.48 159.96 251.44" fill="none" stroke="#4fb589"
        stroke-linecap="round" stroke-linejoin="round" stroke-width="4" />
    </g>
    <g id="fins" fill="none" opacity=".6">
      <circle cx="106.56" cy="117.87" r="26.54" fill="none" stroke="#4fb589" stroke-linecap="round"
        stroke-linejoin="round" stroke-width="4" />
      <line x1="58.02" y1="63.69" x2="152.81" y2="63.69" fill="none" stroke="#4fb589" stroke-linecap="round"
        stroke-linejoin="round" stroke-width="4" />
      <line x1="106.62" y1="279.44" x2="106.62" y2="210.76" fill="none" stroke="#4fb589" stroke-linecap="round"
        stroke-linejoin="round" stroke-width="4" />
      <path
        d="m122.23,270.01h32s31.26-90.91,20.53-150.15C163.39,57.04,112.23,1.01,104.23,2.01s-58.77,60.39-67.09,127.55c-6.89,55.66,23.09,140.45,23.09,140.45h32.83"
        fill="none" stroke="#4fb589" stroke-linecap="round" stroke-linejoin="round" stroke-width="4" />
      <line x1="121.37" y1="251.44" x2="159.96" y2="251.44" fill="none" stroke="#4fb589" stroke-linecap="round"
        stroke-linejoin="round" stroke-width="4" />
      <polyline points="39.81 189.08 2 217.91 9.83 293.48 54.31 251.42" fill="none" stroke="#4fb589"
        stroke-linecap="round" stroke-linejoin="round" stroke-width="4" />
      <polyline points="173.74 188.41 212.43 217.91 204.6 293.48 159.96 251.44" fill="none" stroke="#4fb589"
        stroke-linecap="round" stroke-linejoin="round" stroke-width="4" />
    </g>
    <g id="body-main">
      <circle cx="106.56" cy="117.87" r="26.54" fill="none" stroke="#4fb589" stroke-linecap="round"
        stroke-linejoin="round" stroke-width="4" />
      <line x1="58.02" y1="63.69" x2="152.81" y2="63.69" fill="none" stroke="#4fb589" stroke-linecap="round"
        stroke-linejoin="round" stroke-width="4" />
      <line x1="106.62" y1="279.44" x2="106.62" y2="210.76" fill="none" stroke="#4fb589" stroke-linecap="round"
        stroke-linejoin="round" stroke-width="4" />
      <path
        d="m122.23,270.01h32s31.26-90.91,20.53-150.15C163.39,57.04,112.23,1.01,104.23,2.01s-58.77,60.39-67.09,127.55c-6.89,55.66,23.09,140.45,23.09,140.45h32.83"
        fill="none" stroke="#4fb589" stroke-linecap="round" stroke-linejoin="round" stroke-width="4" />
      <line x1="121.37" y1="251.44" x2="159.96" y2="251.44" fill="none" stroke="#4fb589" stroke-linecap="round"
        stroke-linejoin="round" stroke-width="4" />
      <polyline points="39.81 189.08 2 217.91 9.83 293.48 54.31 251.42" fill="none" stroke="#4fb589"
        stroke-linecap="round" stroke-linejoin="round" stroke-width="4" />
      <polyline points="173.74 188.41 212.43 217.91 204.6 293.48 159.96 251.44" fill="none" stroke="#4fb589"
        stroke-linecap="round" stroke-linejoin="round" stroke-width="4" />
    </g>
  </g>
  <g id="flame">
    <g id="flame_outer" fill="none" opacity=".3">
      <path
        d="m90.56,286.31c-5.9,10.09-7.8,24.26-.61,34.03,1.65,2.23,3.7,4.19,5.97,5.8.83.58,1.51,1.02,2.42,1.56,2.36,1.43,3.11,4.51,1.68,6.87-1.43,2.36-4.51,3.11-6.87,1.68-.55-.35-1.13-.76-1.74-1.2-3.61-2.67-6.69-6.02-8.94-9.92-2.58-4.35-3.96-9.55-4.02-14.53-.12-4.91.81-9.79,2.67-14.17,1.87-4.38,4.48-8.3,7.98-11.45.86-.77,2.14.36,1.46,1.31h0Z"
        fill="#4fb589" />
      <path
        d="m125.38,287.5c10.16,9.36,13.2,24.55,8.5,37.47-1.63,5.28-9.64,18.35-15.71,11.01-1.56-2.28-.99-5.39,1.29-6.96,1.16-.69,2.42-1.73,3.53-3.11,2.24-2.66,3.74-6.01,4.83-9.42,3.03-9.16.77-19.39-3.89-27.68-.68-.95.59-2.11,1.46-1.31h0Z"
        fill="#4fb589" />
      <path
        d="m100.04,309.39c.68,7.15.81,14.5,3.41,21.16,1.51,3.55,3.38,6.98,5.2,10.42.77,1.47,1.6,2.99,2.27,4.41,1.18,2.5.11,5.49-2.39,6.68-4.71,2.1-7.17-2.71-9.09-6.04-1.78-3.18-3.22-6.51-4.27-10.04-1.7-5.45-1.48-11.33-.4-16.82.7-3.51,1.65-6.88,3.06-10.17.46-1.11,2.18-.79,2.2.4h0Z"
        fill="#4fb589" />
      <path
        d="m122.35,315.58c7.15,8.9,4.81,22.83-3.51,30.23-2.77,2.57-5.97,4.5-9.31,5.67-2.62.92-5.49-.46-6.41-3.08-.79-2.26.13-4.71,2.07-5.93,4.35-2.94,8.26-5.78,10.9-10.25,2.78-4.68,3.75-10.2,4.29-15.9-.02-1.03,1.32-1.55,1.97-.74h0Z"
        fill="#4fb589" />
    </g>
    <g id="flame_mid" fill="none" opacity=".6">
      <path
        d="m90.41,286.18c-4.42,7.05-6.63,15.71-5.45,23.88.92,6.96,4.78,12.84,10.35,16.86.8.58,1.54,1.06,2.48,1.63,1.89,1.14,2.49,3.6,1.35,5.5-1.14,1.89-3.6,2.49-5.5,1.35-13.27-8.31-17.84-24.46-12.03-38.79,1.77-4.31,4.24-8.28,7.63-11.48.69-.62,1.71.29,1.17,1.05h0Z"
        fill="#4fb589" />
      <path
        d="m125.23,287.63c9.74,9.53,12.56,24.28,7.83,37-1.33,4.34-8.91,17.1-14.03,10.74-1.29-1.88-.73-4.49,1.22-5.67,2.66-1.67,4.9-4.78,6.33-7.76,5.37-10.61,3.65-23.29-2.52-33.26-.58-.74.48-1.72,1.17-1.05h0Z"
        fill="#4fb589" />
      <path
        d="m99.82,309.35c.33,7.22.29,14.66,2.74,21.46,2.02,5.11,4.92,10.03,7.42,14.89,1.09,1.97.34,4.47-1.67,5.51-4.16,2.03-6.24-2.89-7.95-5.7-3.54-6.33-6.16-13.68-5.56-21.02.32-5.31,1.42-10.5,3.25-15.46.34-.93,1.78-.67,1.76.32h0Z"
        fill="#4fb589" />
      <path
        d="m122.15,315.65c6.31,8.96,4.03,22.19-4.06,29.35-2.68,2.47-5.76,4.37-9,5.57-2.08.77-4.39-.29-5.16-2.37-.68-1.84.07-3.86,1.69-4.84,4.6-2.89,8.76-6,11.37-10.74,2.72-4.87,3.5-10.62,3.58-16.39-.08-.86,1.08-1.3,1.58-.59h0Z"
        fill="#4fb589" />
    </g>
    <g id="flame_core">
      <path
        d="m90.2,285.98c-7.1,10.16-9.35,24.99-2.12,35.56,2.32,3.35,5.33,6.13,8.9,8.27,1.18.71,1.57,2.25.86,3.43-.74,1.24-2.39,1.59-3.57.77-12.78-8.03-17.13-23.25-11.9-37.16.77-2.16,1.82-4.2,2.98-6.14,1.19-1.94,2.51-3.75,4.13-5.38.19-.19.5-.19.69,0,.18.18.19.46.04.66h0Z"
        fill="#4fb589" />
      <path
        d="m125.02,287.82c9.04,9.6,11.68,24.01,6.84,36.3-1.6,4.14-3.99,8.14-8.07,11.03-1.13.8-2.69.53-3.49-.59-.85-1.19-.48-2.87.77-3.61,1.38-.86,2.73-2.18,3.84-3.65,8.49-11.57,7.38-27.25-.62-38.83-.4-.46.3-1.12.73-.65h0Z"
        fill="#4fb589" />
      <path
        d="m99.49,309.28c-.22,7.3-.5,14.99,1.72,21.92,1.93,5.31,4.77,10.39,7.51,15.3.73,1.2.32,2.78-.9,3.47-1.14.65-2.57.3-3.3-.76-3.91-5.9-7.21-12.38-8.29-19.42-.48-3.63-.3-7.14.1-10.59.42-3.45,1.09-6.82,2.06-10.13.18-.63,1.16-.47,1.1.2h0Z"
        fill="#4fb589" />
      <path
        d="m121.86,315.76c7.01,13.05-.02,28.22-13.41,33.46-2.91,1.13-4.86-2.94-2.17-4.5,11.52-6.15,16.1-15.68,14.6-28.58-.13-.57.71-.89.99-.37h0Z"
        fill="#4fb589" />
    </g>
  </g>
  <line x1="55.73" y1="251.44" x2="94.32" y2="251.44" fill="none" stroke="#4fb589" stroke-linecap="round"
    stroke-linejoin="round" stroke-width="4" />
</svg>